<svg width="108" height="95" viewBox="0 0 108 95" fill="none" xmlns="http://www.w3.org/2000/svg">
<path d="M16.4286 34.8535L9.88095 45.4596M9.88095 45.4596L55.7143 89.904M9.88095 45.4596H59.881H41.4286M55.7143 89.904L102.143 45.4596M55.7143 89.904L41.4286 45.4596M55.7143 89.904L71.7857 45.4596M102.143 45.4596L87.2619 22.2273M102.143 45.4596H71.7857M87.2619 22.2273H24.7619M87.2619 22.2273L71.7857 45.4596M24.7619 22.2273L19.4048 30.8131M24.7619 22.2273L41.4286 45.4596M41.4286 45.4596L57 22.2273L71.7857 45.4596M71.7857 45.4596H67.619" stroke="black"/>
<path d="M10.4805 3.86328L11.9492 9.02832H18.042L16.9766 9.91211L13.1123 13.1211L14.5957 18.335L15.0371 19.8877L13.7949 18.8564L10 15.7051L6.20508 18.8564L4.96289 19.8877L5.4043 18.335L6.88672 13.1211L3.02344 9.91211L1.95801 9.02832H8.05078L9.51953 3.86328L10 2.17188L10.4805 3.86328Z" stroke="black"/>
<path d="M90.4805 76.8633L91.9492 82.0283H98.042L96.9766 82.9121L93.1123 86.1211L94.5957 91.335L95.0371 92.8877L93.7949 91.8564L90 88.7051L86.2051 91.8564L84.9629 92.8877L85.4043 91.335L86.8867 86.1211L83.0234 82.9121L81.958 82.0283H88.0508L89.5195 76.8633L90 75.1719L90.4805 76.8633Z" stroke="black"/>
<path d="M101.484 5.87402L102.285 8.95508H106.099L105.141 9.8252L103.012 11.7568L103.835 14.9189L104.257 16.543L103.015 15.415L101 13.585L98.9854 15.415L97.7432 16.543L98.165 14.9189L98.9873 11.7568L96.8594 9.8252L95.9014 8.95508H99.7148L100.516 5.87402L101 4.0127L101.484 5.87402Z" stroke="black"/>


<style>
   path,circle {
    stroke:1px;
    fill: none;
    stroke-dasharray: 1000;
    stroke-dashoffset: 1000;
    animation: dash 3s ease-in-out alternate infinite;
    transition: stroke-dashoffset 0.5s ease-in-out;
  }
    
  @keyframes dash {
    to {
      stroke-dashoffset: 0;
    }
  }
  
</style>
</svg>
