<svg class="central-node" width="30" height="30" viewBox="0 0 250 257" fill="none" xmlns="http://www.w3.org/2000/svg">
  <style>
    .outer-node {
      fill: white;
      stroke: black;
      stroke-width: 12;
      animation: pulse 2s ease-in-out infinite;
      transform-origin: center;
      transform-box: fill-box;
    }
 .central-node{
  overflow: visible ;

 }

    .node-1 { animation-delay: 0s; }
    .node-2 { animation-delay: 0.2s; }
    .node-3 { animation-delay: 0.4s; }
    .node-4 { animation-delay: 0.6s; }
    .node-5 { animation-delay: 0.8s; }
    .node-6 { animation-delay: 1s; }
    .node-7 { animation-delay: 1.2s; }
    .node-8 { animation-delay: 1.4s; }
    .node-9 { animation-delay: 1.6s; }

    @keyframes pulse {
      0%, 100% {
        transform: scale(1);
        stroke: black;
      }
      50% {
        transform: scale(1.3);
        stroke: #1A65A7;
      }
    }
  </style>

  <path d="M129 40.5V57.75V75" stroke="#1A65A7" stroke-width="12"/>
  <path d="M41.5 127.5H73" stroke="#1A65A7" stroke-width="12"/>
  <path d="M129 222V185.5" stroke="#1A65A7" stroke-width="12"/>
  <path d="M213 129.5H178.5" stroke="#1A65A7" stroke-width="12"/>

  <circle class="outer-node node-1" cx="127.5" cy="128.5" r="28.5"/>
  <circle class="outer-node node-2" cx="128" cy="235" r="16"/>
  <circle class="outer-node node-3" cx="128" cy="22" r="16"/>
  <circle class="outer-node node-4" cx="203" cy="204" r="16"/>
  <circle class="outer-node node-5" cx="22" cy="126" r="16"/>
  <circle class="outer-node node-6" cx="51" cy="53" r="16"/>
  <circle class="outer-node node-7" cx="198" cy="51" r="16"/>
  <circle class="outer-node node-8" cx="46" cy="202" r="16"/>
  <circle class="outer-node node-9" cx="228" cy="124" r="16"/>

  <path d="M59.5 61.5L84.5 88" stroke="black"/>
  <path d="M187 62L163 86" stroke="black" stroke-width="12"/>
  <path d="M187.5 191L163 168" stroke="black" stroke-width="12"/>
  <path d="M57 190.5L79.5 165.5" stroke="black" stroke-width="12"/>
  <path d="M59 62.5L84 87.5" stroke="black" stroke-width="12"/>
</svg>
